<?xml version="1.0" standalone="no"?>
<!DOCTYPE svg PUBLIC "-//W3C//DTD SVG 20010904//EN"
 "http://www.w3.org/TR/2001/REC-SVG-20010904/DTD/svg10.dtd">
<svg version="1.0" xmlns="http://www.w3.org/2000/svg"
 width="409.000000pt" height="435.000000pt" viewBox="0 0 409.000000 435.000000"
 preserveAspectRatio="xMidYMid meet">
<metadata>
Created by potrace 1.16, written by Peter Selinger 2001-2019
</metadata>
<g transform="translate(0.000000,435.000000) scale(0.100000,-0.100000)"
fill="#000000" stroke="none">
<path d="M0 2175 l0 -2175 1415 0 1415 0 0 28 c-1 111 -25 340 -55 517 -30
172 -38 252 -46 440 -17 426 -31 517 -104 677 -39 84 -45 106 -45 164 0 83 29
149 75 169 16 8 42 24 56 37 28 24 83 123 77 138 -8 24 -158 -86 -158 -116 0
-8 -1 -14 -3 -14 -35 0 -174 24 -199 34 -36 15 -68 47 -88 86 -13 23 -14 24
-21 5 -4 -11 -8 -37 -8 -57 -1 -33 2 -38 33 -49 21 -8 32 -17 29 -26 -3 -7 15
-35 40 -62 67 -75 76 -101 70 -201 -3 -61 1 -120 17 -210 17 -98 22 -184 27
-395 3 -148 2 -267 -2 -263 -4 4 -15 49 -25 100 -110 584 -207 956 -309 1189
-95 218 -151 365 -151 396 0 27 15 62 22 53 2 -3 16 -23 30 -46 28 -44 154
-170 166 -167 4 1 10 -7 14 -18 4 -10 12 -19 18 -19 6 0 9 4 6 9 -3 5 29 -8
72 -29 70 -34 191 -66 152 -40 -12 8 -11 10 7 10 12 0 25 -5 28 -10 4 -6 15
-8 26 -5 23 8 25 -10 4 -32 -11 -11 -31 -14 -74 -11 -48 2 -57 0 -49 -10 6 -7
17 -11 24 -8 7 3 11 0 8 -7 -7 -20 121 -22 162 -2 19 9 34 20 34 25 0 6 7 10
15 10 8 0 14 5 12 11 -1 6 4 14 12 16 17 7 7 -32 -20 -69 -10 -15 -19 -32 -19
-37 0 -6 -8 -8 -17 -5 -15 5 -15 4 -3 -5 12 -9 12 -11 -2 -16 -10 -4 -14 -13
-11 -22 5 -12 3 -14 -7 -8 -8 5 -11 4 -6 -3 3 -6 2 -13 -4 -17 -5 -3 -10 -12
-10 -18 0 -7 13 2 28 19 27 31 62 95 121 225 30 65 55 97 64 82 5 -9 45 -133
72 -224 16 -54 16 -56 -7 -110 -43 -96 -52 -143 -43 -227 4 -42 11 -372 15
-732 9 -688 19 -925 44 -1060 9 -45 16 -84 16 -86 0 -2 259 -4 575 -4 l575 0
0 2175 0 2175 -2045 0 -2045 0 0 -2175z m2855 1351 c3 -56 13 -86 31 -86 11 0
14 -10 12 -40 -3 -44 1 -42 -96 -44 -58 -1 -78 -17 -60 -49 9 -17 17 -18 89
-12 l80 7 34 -36 c32 -34 59 -51 38 -23 -5 6 -6 23 -2 37 4 14 7 21 8 15 1 -5
6 -37 12 -70 24 -136 27 -244 9 -313 -9 -36 -20 -59 -23 -51 -4 11 -6 11 -6
-2 -1 -9 -17 -31 -36 -50 -19 -19 -35 -39 -35 -45 0 -7 -6 -14 -14 -17 -8 -3
-16 -20 -18 -38 l-3 -31 -27 25 c-16 15 -28 23 -28 19 0 -4 -14 -16 -31 -26
-31 -19 -59 -16 -59 6 0 33 -186 43 -235 13 -28 -18 -95 -28 -95 -15 0 5 -9
19 -19 29 -18 18 -19 18 -32 -6 -10 -19 -20 -23 -43 -21 -26 3 -31 8 -34 33
-5 61 -12 78 -26 66 -18 -15 -39 10 -34 41 2 14 -2 22 -9 21 -7 -2 -13 5 -13
15 0 10 -13 25 -29 35 -16 9 -32 29 -36 44 -3 15 -14 34 -24 42 -39 35 -29
196 18 289 35 69 94 118 136 113 16 -3 17 -1 6 12 -10 13 -6 18 31 35 29 12
49 31 62 54 19 34 23 37 90 46 78 10 294 64 323 80 14 8 24 3 52 -25 27 -28
35 -45 36 -77z m-875 -337 c0 -19 8 -37 21 -48 19 -15 22 -26 19 -82 -1 -35
-2 -78 -2 -96 0 -30 -1 -32 -37 -31 l-38 0 -12 69 c-21 128 -9 219 30 219 15
0 19 -7 19 -31z"/>
<path d="M2710 3240 c-21 -19 -25 -19 -28 -6 -5 23 -21 19 -26 -6 -7 -34 -4
-58 7 -58 6 0 7 -3 4 -7 -4 -3 1 -12 11 -19 13 -11 14 -15 4 -22 -10 -7 -9
-15 5 -40 10 -18 22 -32 26 -32 5 0 5 6 1 12 -12 19 -13 52 -1 66 7 9 4 18 -8
32 -10 11 -13 20 -7 20 7 0 12 9 12 20 0 11 4 20 9 20 5 0 15 2 23 5 8 3 18
-6 24 -23 20 -52 153 -69 162 -21 4 21 -34 63 -49 53 -7 -4 -10 -3 -6 2 3 5
-16 10 -41 11 -26 1 -58 4 -72 8 -18 5 -32 0 -50 -15z"/>
<path d="M2638 2984 c-33 -17 -37 -28 -8 -19 25 8 26 -6 1 -22 -14 -9 -24 -9
-43 1 -14 7 -42 16 -64 19 -21 4 -33 4 -26 1 22 -10 13 -23 -31 -42 -62 -27
-87 -58 -87 -104 0 -41 2 -43 30 -28 13 7 28 6 52 -4 63 -26 78 -28 78 -13 0
22 26 28 82 21 41 -6 48 -9 43 -25 -5 -16 0 -17 62 -15 55 2 69 6 71 20 4 16
5 16 18 -1 12 -16 13 -14 14 20 0 34 -7 45 -56 92 -34 33 -53 59 -48 66 5 8
-1 10 -20 7 -29 -6 -45 6 -20 16 17 6 10 26 -9 26 -7 -1 -24 -8 -39 -16z"/>
</g>
</svg>
